HIERARCHY
ROOT Hips
{
	OFFSET 0.000000 0.000000 0.000000
	CHANNELS 6 Xposition Yposition Zposition Xrotation Yrotation Zrotation
	JOINT LeftUpLeg_virtual
	{
		OFFSET 0.000000 0.000000 0.000000
		CHANNELS 3 Xrotation Yrotation Zrotation
		JOINT LeftUpLeg
		{
			OFFSET 13.026900 -6.336304 -1.092800
			CHANNELS 3 Xrotation Yrotation Zrotation
			JOINT LeftLeg
			{
				OFFSET 0.524474 -46.096886 9.782700
				CHANNELS 3 Xrotation Yrotation Zrotation
				JOINT LeftFoot
				{
					OFFSET -0.524474 -53.427422 -12.948200
					CHANNELS 3 Xrotation Yrotation Zrotation
					JOINT LeftToeBase
					{
						OFFSET 0.192200 -14.009700 16.364100
						CHANNELS 3 Xrotation Yrotation Zrotation
						JOINT LeftToe_End
						{
							OFFSET -1.784700 -0.561700 9.474800
							CHANNELS 3 Xrotation Yrotation Zrotation
							End Site
							{
								OFFSET 0 0 0
							}
						}
					}
				}
			}
		}
	}
	JOINT RightUpLeg_virtual
	{
		OFFSET 0.000000 0.000000 0.000000
		CHANNELS 3 Xrotation Yrotation Zrotation
		JOINT RightUpLeg
		{
			OFFSET -12.883000 -6.336304 -1.092800
			CHANNELS 3 Xrotation Yrotation Zrotation
			JOINT RightLeg
			{
				OFFSET -0.524587 -46.096825 9.782800
				CHANNELS 3 Xrotation Yrotation Zrotation
				JOINT RightFoot
				{
					OFFSET 0.524587 -53.427383 -12.948300
					CHANNELS 3 Xrotation Yrotation Zrotation
					JOINT RightToeBase
					{
						OFFSET -0.192200 -14.009700 16.364100
						CHANNELS 3 Xrotation Yrotation Zrotation
						JOINT RightToe_End
						{
							OFFSET 1.784700 -0.561700 9.474800
							CHANNELS 3 Xrotation Yrotation Zrotation
							End Site
							{
								OFFSET 0 0 0
							}
						}
					}
				}
			}
		}
	}
	JOINT Spine_virtual
	{
		OFFSET 0.000000 0.000000 0.000000
		CHANNELS 3 Xrotation Yrotation Zrotation
		JOINT Spine
		{
			OFFSET 0.072000 7.257294 -0.789700
			CHANNELS 3 Xrotation Yrotation Zrotation
			JOINT Spine1
			{
				OFFSET 0.000000 12.508769 -0.658067
				CHANNELS 3 Xrotation Yrotation Zrotation
				JOINT Spine1_split
				{
					OFFSET 0.000000 12.508769 -0.658067
					CHANNELS 3 Xrotation Yrotation Zrotation
					JOINT Spine2
					{
						OFFSET 0.000000 12.508769 -0.658067
						CHANNELS 3 Xrotation Yrotation Zrotation
						JOINT Neck_virtual
						{
							OFFSET 0.000000 0.000000 0.000000
							CHANNELS 3 Xrotation Yrotation Zrotation
							JOINT Neck
							{
								OFFSET 0.000000 14.033295 7.520400
								CHANNELS 3 Xrotation Yrotation Zrotation
								JOINT Head
								{
									OFFSET 0.000000 8.198502 5.703100
									CHANNELS 3 Xrotation Yrotation Zrotation
									JOINT HeadTop_End
									{
										OFFSET 0.000000 17.760803 13.332701
										CHANNELS 3 Xrotation Yrotation Zrotation
										End Site
										{
											OFFSET 0 0 0
										}
									}
								}
							}
						}
						JOINT LeftShoulder_virtual
						{
							OFFSET 0.000000 0.000000 0.000000
							CHANNELS 3 Xrotation Yrotation Zrotation
							JOINT LeftShoulder
							{
								OFFSET 6.292450 5.785301 -0.669000
								CHANNELS 3 Xrotation Yrotation Zrotation
								JOINT LeftShoulder_split
								{
									OFFSET 6.292450 5.785301 -0.669000
									CHANNELS 3 Xrotation Yrotation Zrotation
									JOINT LeftArm
									{
										OFFSET 13.907140 -6.093903 1.965100
										CHANNELS 3 Xrotation Yrotation Zrotation
										JOINT LeftForeArm
										{
											OFFSET 34.140198 0.000000 0.000000
											CHANNELS 3 Xrotation Yrotation Zrotation
											JOINT LeftHand
											{
												OFFSET 40.960209 0.000000 0.000000
												CHANNELS 3 Xrotation Yrotation Zrotation
												End Site
												{
													OFFSET 0 0 0
												}
											}
										}
									}
								}
							}
						}
						JOINT RightShoulder_virtual
						{
							OFFSET 0.000000 0.000000 0.000000
							CHANNELS 3 Xrotation Yrotation Zrotation
							JOINT RightShoulder
							{
								OFFSET -6.292450 5.785301 -0.669000
								CHANNELS 3 Xrotation Yrotation Zrotation
								JOINT RightShoulder_split
								{
									OFFSET -6.292450 5.785301 -0.669000
									CHANNELS 3 Xrotation Yrotation Zrotation
									JOINT RightArm
									{
										OFFSET -13.907140 -6.093903 1.965100
										CHANNELS 3 Xrotation Yrotation Zrotation
										JOINT RightForeArm
										{
											OFFSET -34.140198 0.000000 0.000000
											CHANNELS 3 Xrotation Yrotation Zrotation
											JOINT RightHand
											{
												OFFSET -40.960209 0.000000 0.000000
												CHANNELS 3 Xrotation Yrotation Zrotation
												End Site
												{
													OFFSET 0 0 0
												}
											}
										}
									}
								}
							}
						}
					}
				}
			}
		}
	}
}
MOTION
Frames: 5
Frame Time: 0.03333333
0.809091 104.501488 -0.520790 0.000000 0.000000 0.000000 9.582403 -61.717630 10.100786 -36.713039 11.711415 23.797889 33.624164 -6.637229 1.094414 -2.991517 -2.340778 -16.500412 -1.836430 -0.000619 -0.000036 0.000000 0.000000 0.000000 9.582403 -61.717630 10.100786 -30.996310 -19.509703 -32.736099 32.937891 3.739966 -3.784619 -9.001028 0.893982 22.875757 -0.001650 -0.000382 0.000010 0.000000 0.000000 0.000000 9.582403 -61.717630 10.100786 15.067370 -0.204177 -4.229933 5.872808 0.571262 -2.801487 0.000000 0.000000 0.000000 0.000000 0.000000 0.000000 5.868642 0.648859 -2.855436 -3.636315 1.441459 3.747634 -20.003655 54.833141 2.408455 0.000000 0.000000 0.000000 5.868642 0.648859 -2.855436 1.829291 -3.192728 -12.271674 0.000000 0.000000 0.000000 -39.386702 26.350093 -34.912003 0.430043 -46.810152 0.421456 0.000000 0.000000 0.000000 5.868642 0.648859 -2.855436 0.631513 7.257358 8.703788 0.000000 0.000000 0.000000 7.936902 -9.680957 53.430787 -22.866912 36.192172 17.964137 0.000000 0.000000 0.000000 
0.841424 104.512741 -0.502094 0.000000 0.000000 0.000000 7.421100 -62.610555 7.581410 -35.881115 11.943744 24.922706 34.012542 -6.334399 1.114964 -3.308283 -2.763597 -16.617386 -1.836430 -0.000621 -0.000035 0.000000 0.000000 0.000000 7.421100 -62.610555 7.581410 -30.091013 -20.150738 -32.146449 32.789177 5.274462 -3.659688 -8.852428 0.467746 22.239453 -0.001650 -0.000382 0.000010 0.000000 0.000000 0.000000 7.421100 -62.610555 7.581410 14.765498 -0.178880 -4.128667 5.731447 0.497494 -2.601730 0.000000 0.000000 0.000000 0.000000 0.000000 0.000000 5.728709 0.572375 -2.640778 -3.172946 1.885440 3.612998 -19.015339 55.489956 2.614349 0.000000 0.000000 0.000000 5.728709 0.572375 -2.640778 1.753345 -3.032290 -12.822386 0.000000 0.000000 0.000000 -32.213836 23.425686 -33.713541 0.377265 -47.042856 0.374153 0.000000 0.000000 0.000000 5.728709 0.572375 -2.640778 -1.447329 6.161768 8.633112 0.000000 0.000000 0.000000 9.394071 -10.760408 54.077087 -22.572450 37.039498 17.841263 0.000000 0.000000 0.000000 
0.852887 104.456566 -0.457520 0.000000 0.000000 0.000000 4.859472 -64.365244 4.581763 -34.999214 12.855074 26.662579 34.677915 -6.787174 1.078320 -3.880568 -2.428891 -16.603630 -1.836430 -0.000620 -0.000036 0.000000 0.000000 0.000000 4.859472 -64.365244 4.581763 -28.968472 -20.027633 -31.115726 32.697157 6.085632 -3.602329 -8.651597 0.833233 21.820477 -0.001650 -0.000382 0.000010 0.000000 0.000000 0.000000 4.859472 -64.365244 4.581763 13.955876 -0.096902 -3.864360 5.353495 0.303635 -2.121741 0.000000 0.000000 0.000000 0.000000 0.000000 0.000000 5.354810 0.371068 -2.125148 -1.988704 2.953753 3.321225 -16.574776 56.788324 1.558025 0.000000 0.000000 0.000000 5.354810 0.371068 -2.125148 1.574591 -2.619408 -14.233882 0.000000 0.000000 0.000000 -23.554770 21.210116 -31.551929 0.317814 -45.950784 0.284424 0.000000 0.000000 0.000000 5.354810 0.371068 -2.125148 -6.616059 4.584724 8.134604 0.000000 0.000000 0.000000 12.017091 -15.513277 54.328981 -22.066053 40.056597 17.908633 0.000000 0.000000 0.000000 
0.841402 104.266449 -0.375500 0.000000 0.000000 0.000000 1.925614 -66.135226 1.185033 -34.258460 13.743048 28.549754 35.597966 -6.896746 1.065779 -4.599694 -2.432517 -16.689712 -1.836430 -0.000619 -0.000035 0.000000 0.000000 0.000000 1.925614 -66.135226 1.185033 -27.893910 -19.640629 -30.133114 32.814175 6.182713 -3.599362 -8.561809 1.802376 21.676591 -0.001650 -0.000382 0.000010 0.000000 0.000000 0.000000 1.925614 -66.135226 1.185033 12.781748 0.031420 -3.498678 4.817287 0.032679 -1.533434 0.000000 0.000000 0.000000 0.000000 0.000000 0.000000 4.825452 0.088648 -1.493720 -0.461097 4.255950 2.996354 -12.491223 57.994030 -0.748458 0.000000 0.000000 0.000000 4.825452 0.088648 -1.493720 1.361654 -2.056924 -16.144989 0.000000 0.000000 0.000000 -14.072014 19.876236 -29.334016 1.242853 -45.264101 0.950469 0.000000 0.000000 0.000000 4.825452 0.088648 -1.493720 -12.957631 2.831198 7.045982 0.000000 0.000000 0.000000 14.698091 -23.427013 54.643675 -22.088833 46.016501 18.937608 0.000000 0.000000 0.000000 
0.811345 103.879906 -0.276978 0.000000 0.000000 0.000000 -0.917715 -67.098836 -2.092119 -33.841381 13.903035 30.030084 36.798395 -6.615836 1.082541 -5.336253 -2.805907 -16.873501 -1.836430 -0.000620 -0.000035 0.000000 0.000000 0.000000 -0.917715 -67.098836 -2.092119 -27.127555 -19.516494 -29.627790 33.315477 5.767369 -3.630078 -8.755871 2.997316 21.786022 -0.001650 -0.000382 0.000010 0.000000 0.000000 0.000000 -0.917715 -67.098836 -2.092119 11.386044 0.207359 -3.096176 4.197308 -0.272396 -1.008444 0.000000 0.000000 0.000000 0.000000 0.000000 0.000000 4.213913 -0.231029 -0.930956 1.018358 5.398508 2.761672 -7.364902 58.437330 -3.637115 0.000000 0.000000 0.000000 4.213913 -0.231029 -0.930956 1.169329 -1.448928 -18.194285 0.000000 0.000000 0.000000 -5.301425 19.592031 -27.056524 -3.385294 -46.469178 -2.582854 0.000000 0.000000 0.000000 4.213913 -0.231029 -0.930956 -18.697332 1.094364 5.824796 0.000000 0.000000 0.000000 16.315063 -34.455743 54.887930 -24.209950 55.678114 22.427461 0.000000 0.000000 0.000000 
